<?xml version="1.0" encoding="UTF-8" standalone="no"?>
<svg
   xmlns:dc="http://purl.org/dc/elements/1.1/"
   xmlns:cc="http://creativecommons.org/ns#"
   xmlns:rdf="http://www.w3.org/1999/02/22-rdf-syntax-ns#"
   xmlns:svg="http://www.w3.org/2000/svg"
   xmlns="http://www.w3.org/2000/svg"
   xmlns:sodipodi="http://sodipodi.sourceforge.net/DTD/sodipodi-0.dtd"
   xmlns:inkscape="http://www.inkscape.org/namespaces/inkscape"
   width="24"
   height="24"
   viewBox="0 0 24 24"
   fill="none"
   version="1.1"
   id="svg6"
   sodipodi:docname="Group 12(1).svg"
   inkscape:version="0.92.5 (2060ec1f9f, 2020-04-08)">
  <metadata
     id="metadata12">
    <rdf:RDF>
      <cc:Work
         rdf:about="">
        <dc:format>image/svg+xml</dc:format>
        <dc:type
           rdf:resource="http://purl.org/dc/dcmitype/StillImage" />
      </cc:Work>
    </rdf:RDF>
  </metadata>
  <defs
     id="defs10" />
  <sodipodi:namedview
     pagecolor="#ffffff"
     bordercolor="#000000"
     borderopacity="0.25"
     objecttolerance="10"
     gridtolerance="10"
     guidetolerance="10"
     inkscape:pageopacity="0"
     inkscape:pageshadow="2"
     inkscape:window-width="1366"
     inkscape:window-height="656"
     id="namedview8"
     showgrid="false"
     inkscape:zoom="19.666667"
     inkscape:cx="10.839216"
     inkscape:cy="13.108384"
     inkscape:window-x="0"
     inkscape:window-y="27"
     inkscape:window-maximized="1"
     inkscape:current-layer="svg6" />
  <path
     style="fill:#ffffff"
     d="M 12 0 C 8.09265 9.2518585e-18 7.6294875 0.013368875 6.0859375 0.083984375 C 4.6586475 0.14889307 3.8828975 0.38674263 3.3671875 0.58789062 C 2.6831475 0.85251962 2.1957338 1.1714537 1.6835938 1.6835938 C 1.1721638 2.1971638 0.85394663 2.6838575 0.58789062 3.3671875 C 0.38816963 3.8843275 0.14889307 4.6586475 0.083984375 6.0859375 C 0.014795375 7.6302075 0 8.0931031 0 12.001953 C -9.2518585e-18 15.910753 0.0146087 16.373116 0.0859375 17.916016 C 0.1508469 19.343216 0.38869675 20.119066 0.58984375 20.634766 C 0.85447375 21.318066 1.1707437 21.804306 1.6835938 22.316406 C 2.1964538 22.828606 2.6838575 23.146109 3.3671875 23.412109 C 3.8828975 23.613309 4.6586475 23.851116 6.0859375 23.916016 C 7.6287875 23.987316 8.09265 24 12 24 C 15.9089 24 16.371263 23.986616 17.914062 23.916016 C 19.341363 23.851116 20.117113 23.613309 20.632812 23.412109 C 21.316113 23.146109 21.804306 22.828606 22.316406 22.316406 C 22.828606 21.804306 23.146109 21.318066 23.412109 20.634766 C 23.611909 20.119066 23.851116 19.343216 23.916016 17.916016 C 23.986616 16.371716 24 15.9073 24 12 C 24 8.09114 23.986616 7.6302075 23.916016 6.0859375 C 23.851116 4.6586475 23.613309 3.8828975 23.412109 3.3671875 C 23.146109 2.6838575 22.829306 2.1957338 22.316406 1.6835938 C 21.803606 1.1714538 21.316113 0.85251963 20.632812 0.58789062 C 20.115613 0.38816963 19.341362 0.14889307 17.914062 0.083984375 C 16.369862 0.014795375 15.9089 0 12 0 z M 12.025391 3.1347656 C 14.446391 3.1347656 14.750372 3.1460131 15.701172 3.1894531 C 16.649672 3.2319631 17.297734 3.3831156 17.865234 3.6035156 C 18.450734 3.8311256 18.949912 4.1346294 19.445312 4.6308594 C 19.940813 5.1270894 20.244456 5.6246875 20.472656 6.2109375 C 20.693056 6.7773675 20.843419 7.42576 20.886719 8.375 C 20.929919 9.32567 20.939453 9.6294913 20.939453 12.050781 C 20.939453 14.472181 20.929919 14.775163 20.886719 15.726562 C 20.844219 16.675663 20.693056 17.323825 20.472656 17.890625 C 20.244456 18.476825 19.941512 18.975203 19.445312 19.470703 C 18.949113 19.966103 18.451434 20.2718 17.865234 20.5 C 17.298434 20.7204 16.650372 20.870863 15.701172 20.914062 C 14.750472 20.958062 14.446691 20.966797 12.025391 20.966797 C 9.6040306 20.966797 9.3007794 20.957362 8.3496094 20.914062 C 7.4004394 20.870863 6.7530369 20.7204 6.1855469 20.5 C 5.5985769 20.2718 5.1016388 19.965903 4.6054688 19.470703 C 4.1093087 18.975503 3.8037819 18.476825 3.5761719 17.890625 C 3.3557719 17.323825 3.2053394 16.675763 3.1621094 15.726562 C 3.1181694 14.775863 3.109375 14.472181 3.109375 12.050781 C 3.109375 9.6294912 3.1181694 9.32567 3.1621094 8.375 C 3.2053394 7.42583 3.3557719 6.7777175 3.5761719 6.2109375 C 3.8037819 5.6239775 4.1092388 5.1263094 4.6054688 4.6308594 C 5.1017087 4.1354094 5.5992969 3.8311256 6.1855469 3.6035156 C 6.7519669 3.3831156 7.4004394 3.2326731 8.3496094 3.1894531 C 9.3007794 3.1455131 9.6044506 3.1347656 12.025391 3.1347656 z M 12.025391 4.7421875 C 9.6454006 4.7421875 9.3636581 4.7497388 8.4238281 4.7929688 C 7.5545481 4.8324887 7.0814281 4.9772094 6.7675781 5.0996094 C 6.3505981 5.2609594 6.0540375 5.4552981 5.7421875 5.7675781 C 5.4303375 6.0798481 5.2362788 6.3766988 5.0742188 6.7929688 C 4.9529687 7.1077487 4.8071681 7.5779756 4.7675781 8.4472656 C 4.7250681 9.3878756 4.7167969 9.6697413 4.7167969 12.050781 C 4.7167969 14.431781 4.7243581 14.714397 4.7675781 15.654297 C 4.8070981 16.523497 4.9518188 16.996747 5.0742188 17.310547 C 5.2355688 17.726847 5.4299075 18.024037 5.7421875 18.335938 C 6.0544675 18.647737 6.3513081 18.839853 6.7675781 19.001953 C 7.0815681 19.124253 7.5545481 19.268994 8.4238281 19.308594 C 9.3633681 19.351894 9.6443306 19.361328 12.025391 19.361328 C 14.406391 19.361328 14.689106 19.351894 15.628906 19.308594 C 16.498206 19.269094 16.969303 19.124353 17.283203 19.001953 C 17.699503 18.839953 17.996694 18.647537 18.308594 18.335938 C 18.620394 18.024337 18.814462 17.726747 18.976562 17.310547 C 19.098162 16.996547 19.243603 16.523597 19.283203 15.654297 C 19.326403 14.713697 19.335938 14.431881 19.335938 12.050781 C 19.335937 9.6697812 19.326403 9.3898287 19.283203 8.4492188 C 19.243703 7.5799388 19.098962 7.1068087 18.976562 6.7929688 C 18.814462 6.3766887 18.620794 6.0794281 18.308594 5.7675781 C 17.996294 5.4557281 17.699503 5.2609494 17.283203 5.0996094 C 16.968403 4.9783494 16.498206 4.8325588 15.628906 4.7929688 C 14.688306 4.7501688 14.405291 4.7421875 12.025391 4.7421875 z M 16.785156 6.2226562 C 16.996756 6.2227462 17.203006 6.2847037 17.378906 6.4023438 C 17.554806 6.5199737 17.692538 6.6872725 17.773438 6.8828125 C 17.854338 7.0783425 17.875284 7.29247 17.833984 7.5 C 17.792584 7.70753 17.690716 7.8992581 17.541016 8.0488281 C 17.391416 8.1984081 17.199788 8.3005969 16.992188 8.3417969 C 16.784588 8.3829969 16.5704 8.3603569 16.375 8.2792969 C 16.1795 8.1982369 16.012031 8.0627188 15.894531 7.8867188 C 15.777031 7.7107288 15.714744 7.5026256 15.714844 7.2910156 C 15.715044 7.0073656 15.826744 6.7356862 16.027344 6.5351562 C 16.227944 6.3346263 16.501456 6.2227963 16.785156 6.2226562 z M 12.025391 7.4726562 C 14.553991 7.4726562 16.603516 9.5222112 16.603516 12.050781 C 16.603516 14.579381 14.553991 16.628906 12.025391 16.628906 C 9.4967506 16.628906 7.4472656 14.579381 7.4472656 12.050781 C 7.4472656 9.5220712 9.4967506 7.4726562 12.025391 7.4726562 z M 12.025391 9.078125 C 10.383991 9.078125 9.0527344 10.409481 9.0527344 12.050781 C 9.0527344 13.692181 10.383991 15.023438 12.025391 15.023438 C 13.666691 15.023438 14.998047 13.692181 14.998047 12.050781 C 14.998047 10.409481 13.666691 9.078125 12.025391 9.078125 z "
     id="path2" />
</svg>
