<svg width="50" height="48" viewBox="0 0 50 48" fill="none" xmlns="http://www.w3.org/2000/svg">
<path d="M34.8596 47.4386H14.4908C10.6491 47.4342 6.96599 46.0048 4.24945 43.4639C1.53292 40.923 0.00469941 37.4781 0 33.8847V13.5539C0.00469941 9.96053 1.53292 6.51559 4.24945 3.97469C6.96599 1.4338 10.6491 0.00439556 14.4908 0H34.8596C38.7014 0.00439556 42.3845 1.4338 45.101 3.97469C47.8176 6.51559 49.3458 9.96053 49.3505 13.5539V33.8847C49.3458 37.4781 47.8176 40.923 45.101 43.4639C42.3845 46.0048 38.7014 47.4342 34.8596 47.4386ZM14.4908 3.47983C11.6342 3.48202 8.89517 4.54384 6.87442 6.43238C4.85367 8.32092 3.7162 10.882 3.7115 13.5539V33.8847C3.71619 36.5574 4.85338 39.1193 6.87387 41.0092C8.89437 42.899 11.6334 43.9627 14.4908 43.9671H34.8596C37.7162 43.9627 40.4544 42.8988 42.4734 41.0087C44.4925 39.1186 45.6277 36.5566 45.6301 33.8847V13.5539C45.6277 10.8828 44.4922 8.32166 42.4729 6.43289C40.4536 4.54411 37.7154 3.48203 34.8596 3.47983H14.4908Z" fill="white"/>
<path d="M24.6753 36.26C21.1028 36.2556 17.6781 34.9257 15.1528 32.5621C12.6275 30.1985 11.2079 26.9944 11.2056 23.6529C11.2098 21.9499 11.5771 20.2647 12.286 18.6961C12.995 17.1274 14.0313 15.7068 15.3344 14.5173C16.5717 13.3782 18.0426 12.4849 19.6585 11.8911C21.2744 11.2974 23.002 11.0155 24.7374 11.0624C28.9373 11.1787 32.4179 12.4992 34.8064 14.8827C35.9575 16.0758 36.8451 17.47 37.418 18.9851C37.991 20.5002 38.238 22.1063 38.145 23.711C38.0927 27.0435 36.664 30.2279 34.1582 32.5974C32.915 33.764 31.4367 34.6884 29.8089 35.3171C28.1812 35.9457 26.4363 36.2662 24.6753 36.26ZM24.3645 15.2897C22.1659 15.2962 20.0581 16.1105 18.4954 17.557C17.6259 18.3506 16.9346 19.2986 16.462 20.3453C15.9893 21.3921 15.7448 22.5166 15.7428 23.6529C15.7457 24.7501 15.9797 25.836 16.4313 26.8486C16.8829 27.8612 17.5433 28.7807 18.3748 29.5546C19.2063 30.3285 20.1926 30.9416 21.2775 31.359C22.3623 31.7763 23.5244 31.9898 24.6975 31.987C25.8705 31.9843 27.0315 31.7655 28.1141 31.3431C29.1967 30.9207 30.1798 30.303 31.0072 29.5252C31.8346 28.7475 32.4901 27.8249 32.9363 26.8102C33.3825 25.7955 33.6106 24.7085 33.6077 23.6114C33.7515 21.4885 32.9918 19.3987 31.4945 17.7978C29.9495 16.2531 27.5699 15.3976 24.6042 15.3063L24.3645 15.2897Z" fill="white"/>
<path d="M38.4734 13.6371C40.2094 13.6371 41.6167 12.3208 41.6167 10.6971C41.6167 9.07337 40.2094 7.75708 38.4734 7.75708C36.7375 7.75708 35.3302 9.07337 35.3302 10.6971C35.3302 12.3208 36.7375 13.6371 38.4734 13.6371Z" fill="white"/>
</svg>
