<svg width="50" height="48" viewBox="0 0 50 48" fill="none" xmlns="http://www.w3.org/2000/svg">
<path d="M46.1402 0H4.08628C2.07178 0 0.442825 1.52878 0.442825 3.41891V44.0104C0.442825 45.9005 2.07178 47.4386 4.08628 47.4386H46.1402C48.1547 47.4386 49.7933 45.9006 49.7933 44.0197V3.41891C49.7933 1.52878 48.1547 0 46.1402 0ZM15.0841 40.4247H7.75865V17.7802H15.0841V40.4247ZM11.4214 14.6948C9.06952 14.6948 7.17068 12.8696 7.17068 10.6181C7.17068 8.36661 9.06952 6.54134 11.4214 6.54134C13.7636 6.54134 15.6624 8.36661 15.6624 10.6181C15.6624 12.8603 13.7636 14.6948 11.4214 14.6948ZM42.4967 40.4247H35.1809V29.4175C35.1809 26.7954 35.1327 23.4135 31.3736 23.4135C27.5663 23.4135 26.988 26.2765 26.988 29.2322V40.4247H19.6818V17.7802H26.6988V20.8748H26.7952C27.7687 19.0959 30.1591 17.215 33.7158 17.215C41.128 17.215 42.4967 21.9033 42.4967 27.9999V40.4247Z" fill="url(#paint0_linear_179_44)"/>
<defs>
<linearGradient id="paint0_linear_179_44" x1="25.1181" y1="0" x2="25.1181" y2="47.4386" gradientUnits="userSpaceOnUse">
<stop stop-color="white" stop-opacity="0.932385"/>
<stop offset="1" stop-color="white"/>
</linearGradient>
</defs>
</svg>
