<svg width="50" height="50" viewBox="0 0 50 50" fill="none" xmlns="http://www.w3.org/2000/svg">
<path fill-rule="evenodd" clip-rule="evenodd" d="M11.9495 0.713688C20.6325 -0.237896 29.3675 -0.237896 38.0505 0.713688L41.795 1.12405C45.5272 1.53307 48.5427 5.02781 49.0848 9.5723C50.3051 19.8031 50.3051 30.197 49.0848 40.4277C48.5427 44.9722 45.5272 48.4669 41.795 48.876L38.0505 49.2863C29.3675 50.2379 20.6325 50.2379 11.9495 49.2863L8.20502 48.876C4.47282 48.4669 1.45729 44.9722 0.91523 40.4277C-0.305077 30.1969 -0.305077 19.8031 0.91523 9.5723C1.45729 5.02781 4.47282 1.53307 8.20502 1.12405L11.9495 0.713688ZM9.8368 9.39115C9.26322 9.01259 8.5695 9.03151 8.01022 9.44096C7.45094 9.8504 7.10846 10.5901 7.10846 11.3886V40.1238C7.10846 41.3767 7.93712 42.3924 8.95931 42.3924C9.98151 42.3924 10.8102 41.3767 10.8102 40.1238V15.1866L24.1225 23.9727C24.6703 24.3342 25.3297 24.3342 25.8775 23.9727L39.1898 15.1866V40.1238C39.1898 41.3767 40.0184 42.3924 41.0406 42.3924C42.0628 42.3924 42.8915 41.3767 42.8915 40.1238V11.3886C42.8915 10.5901 42.549 9.8504 41.9897 9.44096C41.4304 9.03151 40.7367 9.01259 40.1632 9.39115L25 19.3987L9.8368 9.39115Z" fill="black"/>
</svg>
